<svg xmlns="http://www.w3.org/2000/svg" xmlns:xlink="http://www.w3.org/1999/xlink" width="635.0347290039062" height="614.4131469726562" viewBox="0 0 635.0347290039062 614.4131469726562" fill="none">
<g  clip-path="url(#clip-path-XeL3HgdOtrRXQtCaNoc8_)">
<path     fill="#7986CB"  d="M252.089 467.22L198.154 413.923L198.793 413.262C201.033 410.773 203.238 408.254 205.409 405.706C207.581 403.157 209.718 400.58 211.82 397.973C213.922 395.367 215.988 392.733 218.019 390.071C220.05 387.409 222.045 384.72 224.003 382.004C225.961 379.288 227.882 376.546 229.766 373.779C231.651 371.011 233.497 368.218 235.306 365.401C237.115 362.583 238.886 359.742 240.617 356.876C242.349 354.011 244.042 351.122 245.696 348.211C247.351 345.3 248.966 342.367 250.54 339.413C252.115 336.458 253.65 333.483 255.144 330.486C256.639 327.491 258.093 324.475 259.506 321.439C260.919 318.404 262.291 315.35 263.622 312.277C264.953 309.205 266.242 306.115 267.489 303.008C268.736 299.901 269.942 296.777 271.104 293.637C272.267 290.498 273.388 287.343 274.465 284.173C275.543 281.002 276.578 277.819 277.57 274.621L339.793 274.621L339.793 232.103L191.145 232.103L191.145 189.651L148.67 189.651L148.67 232.124L0 232.124L0 274.621L237.211 274.621C236.297 277.235 235.351 279.838 234.372 282.429C233.394 285.02 232.383 287.598 231.34 290.164C230.298 292.73 229.224 295.283 228.117 297.822C227.012 300.361 225.874 302.887 224.705 305.398C223.536 307.909 222.337 310.405 221.106 312.886C219.876 315.368 218.615 317.833 217.323 320.283C216.031 322.733 214.709 325.167 213.357 327.584C212.005 330.001 210.623 332.401 209.211 334.784C207.799 337.167 206.358 339.532 204.888 341.879C203.417 344.226 201.918 346.555 200.39 348.865C198.862 351.175 197.305 353.465 195.72 355.737C194.135 358.008 192.522 360.26 190.881 362.491C189.24 364.722 187.572 366.932 185.876 369.122C184.181 371.312 182.458 373.481 180.708 375.628C178.959 377.775 177.183 379.901 175.381 382.004C173.579 384.107 171.75 386.187 169.896 388.245C167.477 385.564 165.102 382.844 162.771 380.085C160.44 377.326 158.154 374.53 155.915 371.697C153.675 368.863 151.482 365.994 149.336 363.089C147.19 360.184 145.092 357.245 143.041 354.272C140.991 351.299 138.99 348.293 137.037 345.254C135.085 342.216 133.183 339.146 131.33 336.046C129.478 332.945 127.677 329.815 125.926 326.656C124.176 323.496 122.478 320.309 120.832 317.095L78.3796 317.095C80.3664 321.507 82.4385 325.88 84.5953 330.212C86.7521 334.544 88.9926 338.833 91.3163 343.077C93.6399 347.322 96.0457 351.521 98.5327 355.672C101.02 359.823 103.587 363.924 106.234 367.976C108.881 372.027 111.605 376.026 114.407 379.971C117.21 383.916 120.088 387.806 123.042 391.639C125.996 395.472 129.023 399.247 132.124 402.962C135.224 406.677 138.396 410.331 141.639 413.923L33.5693 520.538L63.7221 550.691L169.896 444.517L235.955 510.554L252.089 467.242M371.643 359.569L329.169 359.569L233.619 614.413L276.093 614.413L299.876 550.713L400.738 550.713L424.741 614.413L467.216 614.413L371.643 359.569ZM316.01 508.217L350.395 416.26L384.802 508.217L316.01 508.217Z">
</path>
</g>
<path d="M633.738 58.0467L449.74 387.067C445.941 393.86 436.181 393.9 432.325 387.14L244.679 58.0784C240.478 50.7118 246.778 41.7887 255.126 43.2808L439.32 76.2045C440.495 76.4145 441.698 76.4125 442.873 76.1984L623.216 43.328C631.536 41.8116 637.865 50.6656 633.738 58.0467Z"   fill="url(#linear_fill_Vn3lO8EVp0ByXZxwabSte)" >
</path>
<path d="M527.063 0.0965566L390.899 26.7774C388.661 27.2159 387.004 29.1125 386.869 31.3886L378.493 172.852C378.296 176.184 381.356 178.77 384.608 178.02L422.518 169.271C426.065 168.453 429.27 171.577 428.541 175.144L417.278 230.297C416.52 234.009 420.005 237.183 423.63 236.082L447.045 228.968C450.675 227.866 454.163 231.049 453.395 234.764L435.496 321.397C434.376 326.816 441.584 329.771 444.59 325.125L446.598 322.022L557.552 100.594C559.41 96.8867 556.206 92.6592 552.134 93.445L513.112 100.976C509.445 101.683 506.325 98.2682 507.36 94.6805L532.829 6.38904C533.865 2.79529 530.734 -0.622662 527.063 0.0965566Z"   fill="url(#linear_fill_E_Ey2Fd1Bv0xILxBYAG7i)" >
</path>
<defs>
<clipPath id="clip-path-XeL3HgdOtrRXQtCaNoc8_">
<path d="M0 614.413L467.216 614.413L467.216 189.651L0 189.651L0 614.413Z" fill="white"/>
</clipPath>
<linearGradient id="linear_fill_Vn3lO8EVp0ByXZxwabSte" x1="240.0977783203125" y1="31.522055625915527" x2="469.09759521484375" y2="342.52215576171875" gradientUnits="userSpaceOnUse">
<stop offset="0" stop-color="#41D1FF"  />
<stop offset="1" stop-color="#BD34FE"  />
</linearGradient>
<linearGradient id="linear_fill_E_Ey2Fd1Bv0xILxBYAG7i" x1="428.74859619140625" y1="7.340335845947266" x2="470.173583984375" y2="291.5111389160156" gradientUnits="userSpaceOnUse">
<stop offset="0" stop-color="#FFEA83"  />
<stop offset="0.0833333" stop-color="#FFDD35"  />
<stop offset="1" stop-color="#FFA800"  />
</linearGradient>
</defs>
</svg>
